<svg xmlns="http://www.w3.org/2000/svg" width="30" height="31" fill="none" viewBox="0 0 30 31">
  <path fill="#C4C4C4" fill-rule="evenodd" d="M10.878.448a2.962 2.962 0 1 0 .002 5.924h2.963V3.41A2.965 2.965 0 0 0 10.878.448c.002 0 .002 0 0 0Zm0 7.9h-7.9a2.963 2.963 0 0 0 0 5.926h7.9a2.963 2.963 0 1 0 0-5.926Zm18.765 2.962a2.963 2.963 0 0 0-5.927 0v2.963h2.963a2.963 2.963 0 0 0 2.964-2.963Zm-7.901 0v-7.9a2.963 2.963 0 0 0-5.925 0v7.9a2.963 2.963 0 1 0 5.925 0ZM18.78 30.075a2.963 2.963 0 1 0 0-5.925h-2.963v2.963a2.964 2.964 0 0 0 2.963 2.962Zm0-7.902h7.9a2.963 2.963 0 0 0 .002-5.926h-7.9a2.963 2.963 0 0 0-.002 5.926ZM.016 19.21a2.963 2.963 0 0 0 5.926 0v-2.962H2.979a2.963 2.963 0 0 0-2.963 2.963Zm7.9 0v7.901a2.963 2.963 0 0 0 5.925.002v-7.9a2.963 2.963 0 0 0-5.925-.002Z" clip-rule="evenodd"/>
</svg>
